<?xml version="1.0" encoding="UTF-8" standalone="no"?>
<svg
   version="1.1"
   width="17.606186"
   height="19.675879"
   viewBox="0 0 17.606186 19.675879"
   id="svg67"
   xml:space="preserve"
   xmlns="http://www.w3.org/2000/svg"
   xmlns:svg="http://www.w3.org/2000/svg"
>
  <g transform="translate(-75.731003,-1.5666674)">
    <polygon
       style="fill:#027be3;fill-opacity:1"
       points="210,210 160,180 110,210 160,90 "
       transform="matrix(0.17606186,0,0,0.16396566,56.364198,-13.190242)"
    />
    <path
       style="fill:#e4e4e4;fill-opacity:1;stroke-width:0.169906"
       d="m 84.526142,1.8756236 -0.0095,0.1219828 h 0.0319 l -0.0057,-0.1219828 z m -0.0037,0.2026792 -0.01502,0.2045558 h 0.05255 l -0.01121,-0.2045558 z m -0.0095,0.3396754 -0.02252,0.3396755 h 0.08632 l -0.01689,-0.3396755 z m -0.01313,0.5648747 -0.0394,0.5667506 H 84.60679 L 84.57864,2.9828529 Z m -0.02252,0.9420827 -0.06381,0.9439602 H 84.65557 L 84.60866,3.9249356 Z m -0.03565,1.5688891 -0.108843,1.5763935 H 84.73628 L 84.65746,5.4938247 Z m -0.06381,2.6160634 -0.18016,2.6254489 h 0.671845 L 84.74008,8.1098881 Z m -0.103212,4.3613569 -0.287129,4.158681 0.546106,-0.305896 0.549863,0.307773 -0.206432,-4.160558 z"
    />
    <path
       style="fill:#e4e4e4;fill-opacity:1;stroke-width:1.43297;stop-color:#000000"
       d="m 84.530318,1.5734817 -0.0019,0.00567 -6.900476,18.6033323 0.748787,-0.418495 6.15732,-18.1810842 z m 0.0039,0.00942 6.157319,18.1810833 0.74879,0.418495 -6.900488,-18.6033314 -0.0019,-0.00567 z"
    />
  </g>
</svg>
