<svg xmlns="http://www.w3.org/2000/svg" viewBox="0 0 32 32">
  <g transform="rotate(0 16 16)">
    <circle cx="16" cy="16" r="16" fill="#aaaaaa" fill-opacity="1" />
    <circle cx="16" cy="16" r="15" fill="#ebebeb" fill-opacity="1" />
    <path
      stroke="#0063b8"
      stroke-width="1"
      fill="#027be3"
      transform="translate(4, 3)"
      d="M20 20.725a.94.94 0 0 1-.55-.17l-6.9-4.56a1 1 0 0 0-1.1 0l-6.9 4.56a1 1 0 0 1-1.44-1.28l8-16a1 1 0 0 1 1.78 0l8 16a1 1 0 0 1-.23 1.2A1 1 0 0 1 20 20.725z"
    />
  </g>
</svg>
