<?xml version="1.0" encoding="UTF-8" standalone="no"?>
<svg
   version="1.1"
   width="87"
   height="24"
   viewBox="0 0 87 24"
   id="svg67"
   sodipodi:docname="zf-logo.svg"
   xml:space="preserve"
   inkscape:version="1.2 (dc2aedaf03, 2022-05-15)"
   xmlns:inkscape="http://www.inkscape.org/namespaces/inkscape"
   xmlns:sodipodi="http://sodipodi.sourceforge.net/DTD/sodipodi-0.dtd"
   xmlns="http://www.w3.org/2000/svg"
   xmlns:svg="http://www.w3.org/2000/svg"><defs
     id="defs71"><inkscape:path-effect
       effect="skeletal"
       id="path-effect13543"
       is_visible="true"
       lpeversion="1"
       pattern="m 51.007126,24.656628 -0.0059,0.02539 c 2.0431,3.364566 4.085806,6.729118 6.128906,10.093749 0.05397,-0.148294 0.106252,-0.296001 0.154297,-0.443358 -2.085006,-3.224671 -4.170853,-6.449226 -6.25586,-9.673829 -0.0072,-2.63e-4 -0.01431,-0.0017 -0.02148,-0.002 z m -0.541016,0.0019 c -0.0085,3.61e-4 -0.01694,0.0016 -0.02539,0.002 -2.051606,3.254965 -4.102691,6.510591 -6.154297,9.765625 0.05029,0.150423 0.101864,0.301806 0.158203,0.453125 2.008788,-3.399351 4.018498,-6.797981 6.027344,-10.197266 z m 0.0918,0 -5.851562,10.871093 c 1.906127,4.515528 6.0625,9.121095 6.0625,9.121095 0,0 4.30435,-4.766343 6.162109,-9.355469 -2.011172,-3.545817 -4.022038,-7.090971 -6.033206,-10.636716 z"
       copytype="repeated"
       prop_scale="1"
       scale_y_rel="false"
       spacing="0"
       normal_offset="0"
       tang_offset="0"
       prop_units="false"
       vertical_pattern="false"
       hide_knot="false"
       fuse_tolerance="0" /><filter
       id="mask-powermask-path-effect13636_inverse"
       inkscape:label="filtermask-powermask-path-effect13636"
       style="color-interpolation-filters:sRGB"
       height="100"
       width="100"
       x="-50"
       y="-50"><feColorMatrix
         id="mask-powermask-path-effect13636_primitive1"
         values="1"
         type="saturate"
         result="fbSourceGraphic" /><feColorMatrix
         id="mask-powermask-path-effect13636_primitive2"
         values="-1 0 0 0 1 0 -1 0 0 1 0 0 -1 0 1 0 0 0 1 0 "
         in="fbSourceGraphic" /></filter><clipPath
       clipPathUnits="userSpaceOnUse"
       id="clipPath1845"><path
         d="m 63.952649,2.1037171 -6.666771,16.5238739 -0.0088,0.09549 6.67539,-2.164366 6.717214,2.10828 -0.05045,-0.03941 z"
         id="path1847"
         style="fill:#373737;fill-opacity:1;stroke-width:0.896141"
         sodipodi:nodetypes="ccccccc" /></clipPath><clipPath
       clipPathUnits="userSpaceOnUse"
       id="clipPath1897"><path
         d="m 63.952649,2.1037171 -6.666771,16.5238739 -0.0088,0.09549 6.67539,-2.164366 6.717214,2.10828 -0.05045,-0.03941 z"
         id="path1899"
         style="fill:#373737;fill-opacity:1;stroke-width:0.896141"
         sodipodi:nodetypes="ccccccc" /></clipPath><clipPath
       clipPathUnits="userSpaceOnUse"
       id="clipPath2302"><path
         d="m 64.032398,1.3591179 -7.582351,18.1927021 -0.0097,0.105699 7.509695,-2.395699 7.556745,2.333619 -0.05675,-0.04362 z"
         id="path2304"
         style="fill:#027be3;fill-opacity:1"
         sodipodi:nodetypes="ccccccc" /></clipPath></defs><sodipodi:namedview
     id="namedview69"
     pagecolor="#ffffff"
     bordercolor="#000000"
     borderopacity="0.25"
     inkscape:showpageshadow="2"
     inkscape:pageopacity="0.0"
     inkscape:pagecheckerboard="0"
     inkscape:deskcolor="#d1d1d1"
     showgrid="false"
     inkscape:zoom="34.166667"
     inkscape:cx="55.126829"
     inkscape:cy="11.765854"
     inkscape:window-width="1876"
     inkscape:window-height="1036"
     inkscape:window-x="44"
     inkscape:window-y="44"
     inkscape:window-maximized="1"
     inkscape:current-layer="layer2" /><path
     d="M 12,2 C 8.1340068,2 5,5.1340068 5,9 c 0,5.25 7,13 7,13 0,0 7,-7.75 7,-13 0,-3.8659932 -3.134007,-7 -7,-7 z"
     id="path4623"
     sodipodi:nodetypes="sscss"
     style="font-variation-settings:normal;display:none;opacity:1;vector-effect:none;fill:#000000;fill-opacity:1;stroke-width:1;stroke-linecap:butt;stroke-linejoin:miter;stroke-miterlimit:4;stroke-dasharray:none;stroke-dashoffset:0;stroke-opacity:1;-inkscape-stroke:none;stop-color:#000000;stop-opacity:1"
     inkscape:label="map-pin-backup" /><g
     id="layer1"
     inkscape:label="v1"><path
       id="path6083"
       style="font-variation-settings:normal;display:inline;opacity:1;vector-effect:none;fill:#027be3;fill-opacity:1;stroke-width:1;stroke-linecap:butt;stroke-linejoin:miter;stroke-miterlimit:4;stroke-dasharray:none;stroke-dashoffset:0;stroke-opacity:1;-inkscape-stroke:none;stop-color:#000000;stop-opacity:1"
       inkscape:label="cesta linije"
       d="M 14.061564,5.6885934 C 13.741405,5.8512831 13.270548,6.088984 13.270548,6.088984 l -0.716797,0.421875 0.94336,0.011719 c 0,0 0.322802,-0.1785386 0.742187,-0.4042969 -0.05379,-0.1456485 -0.114721,-0.2887833 -0.177734,-0.4296877 z m -2.578125,1.4960937 c 0,0 -1.389528,0.9508401 -2.0234376,1.5390625 -0.633899,0.5882234 -1.478515,1.4492184 -1.478515,1.4492184 l 1.044922,0.04102 c 0,0 0.455388,-0.628672 1.2734366,-1.3183594 0.834769,-0.7037813 2.117188,-1.7089843 2.117188,-1.7089844 z m -3.2402336,3.8261719 -1.070313,0.0039 c -0.408809,0.5065 -0.927282,1.198782 -1.425781,2.042969 -0.4606793,0.780139 -0.8355217,1.412751 -1.2070314,2.556641 l 1.03125,0.002 1.1679684,-2.265625 z m -3.119141,5.826172 -1.0507812,0.01563 -0.00195,0.0059 c 0.2588706,0.387455 0.5168241,0.76351 0.7714844,1.119141 z" /><path
       style="font-variation-settings:normal;opacity:1;vector-effect:none;fill:#027be3;fill-opacity:1;stroke-width:1;stroke-linecap:butt;stroke-linejoin:miter;stroke-miterlimit:4;stroke-dasharray:none;stroke-dashoffset:0;stroke-opacity:1;-inkscape-stroke:none;stop-color:#000000;stop-opacity:1"
       d="M 14.545939,7.2315621 C 13.84266,7.818634 13.136528,8.490293 12.458048,9.2589059 9.1214534,13.937065 8.1552974,19.399784 7.9092204,21.268671 c 1.127422,-1.294805 6.7617186,-7.99766 6.7617186,-12.726562 0,-0.4482735 -0.04447,-0.8857014 -0.125,-1.3105469 z"
       id="path5355"
       inkscape:label="mali polumjesec" /><path
       style="font-variation-settings:normal;opacity:1;vector-effect:none;fill:#393939;fill-opacity:1;stroke-width:1;stroke-linecap:butt;stroke-linejoin:miter;stroke-miterlimit:4;stroke-dasharray:none;stroke-dashoffset:0;stroke-opacity:1;-inkscape-stroke:none;stop-color:#000000;stop-opacity:1"
       d="m 7.6709394,1.542109 c -3.8659893,0 -6.99999999,3.1340107 -6.99999999,7 0,1.686067 0.72289159,3.62994 1.70312499,5.492188 C 3.4952603,12.261476 5.6788354,9.3875843 9.1533614,7.1475778 10.813402,6.2216234 12.332556,5.518453 13.692423,4.9757028 12.472677,2.9211003 10.233647,1.542109 7.6709394,1.542109 Z"
       id="path65"
       inkscape:label="polumjesec" /></g><g
     inkscape:groupmode="layer"
     id="layer3"
     inkscape:label="v2"><path
       d="m 24.855563,1.4537653 c -3.865993,0 -7,3.1340068 -7,7 0,5.2499997 7,12.9999997 7,12.9999997 0,0 7,-7.75 7,-12.9999997 0,-3.8659932 -3.134007,-7 -7,-7 z"
       id="path7842-6"
       sodipodi:nodetypes="sscss"
       style="font-variation-settings:normal;display:inline;vector-effect:none;fill:#595959;fill-opacity:1;stroke-width:1;stroke-linecap:butt;stroke-linejoin:miter;stroke-miterlimit:4;stroke-dasharray:none;stroke-dashoffset:0;stroke-opacity:1;-inkscape-stroke:none;stop-color:#000000"
       inkscape:label="map-pin" /><path
       id="path8038"
       style="font-variation-settings:normal;opacity:1;vector-effect:none;fill:#027be3;fill-opacity:1;stroke-width:1;stroke-linecap:butt;stroke-linejoin:miter;stroke-miterlimit:4;stroke-dasharray:none;stroke-dashoffset:0;stroke-opacity:1;-inkscape-stroke:none;stop-color:#000000;stop-opacity:1"
       d="m 24.855469,1.453125 c -0.09193,0 -0.182372,0.0043 -0.273438,0.00781 l -6.138672,9.970704 c 1.68194,4.781752 6.41211,10.021483 6.41211,10.021483 0,0 4.763591,-5.276906 6.429687,-10.072266 L 25.511719,2.0292969 25.083984,1.4589844 c -0.07622,-0.00246 -0.151698,-0.00586 -0.228515,-0.00586 z"
       inkscape:label="linije bok" /><path
       id="path4623-7"
       style="font-variation-settings:normal;display:inline;vector-effect:none;fill:#000000;fill-opacity:1;stroke-width:1;stroke-linecap:butt;stroke-linejoin:miter;stroke-miterlimit:4;stroke-dasharray:none;stroke-dashoffset:0;stroke-opacity:1;-inkscape-stroke:none;stop-color:#000000"
       inkscape:label="cesta"
       d="m 25.09375,1.4589844 -0.0059,0.025391 c 2.0431,3.3645668 4.085806,6.7291178 6.128906,10.0937496 0.05397,-0.148295 0.106252,-0.296002 0.154297,-0.443359 -2.085006,-3.2246707 -4.170853,-6.4492256 -6.25586,-9.6738281 -0.0072,-2.627e-4 -0.01431,-0.00171 -0.02148,-0.00195 z m -0.541016,0.00195 c -0.0085,3.611e-4 -0.01694,0.00156 -0.02539,0.00195 -2.051606,3.254965 -4.102691,6.5105912 -6.154297,9.7656256 0.05029,0.150422 0.101864,0.301806 0.158203,0.453125 2.008788,-3.3993513 4.018498,-6.7979813 6.027344,-10.1972662 z m 0.0918,0 -5.851562,10.8710936 c 1.906127,4.515528 6.0625,9.121094 6.0625,9.121094 0,0 4.30435,-4.766342 6.162109,-9.355469 C 29.006409,8.5518365 26.995543,5.0066831 24.984375,1.4609375 Z" /><path
       id="path46"
       mask="none"
       style="opacity:1;fill:#027be3;fill-opacity:1;fill-rule:nonzero;stroke:none;stroke-width:0.0020547"
       inkscape:label="linije sredina"
       d="m 24.865234,1.5917969 -0.0078,0.1015625 h 0.02734 l -0.0059,-0.1015625 z m -0.0039,0.1699219 -0.01172,0.1699218 h 0.04297 l -0.0078,-0.1699218 z m -0.0078,0.2832031 -0.01953,0.2851562 h 0.07227 l -0.01367,-0.2851562 z m -0.01172,0.4726562 -0.03125,0.4746094 h 0.121094 l -0.02344,-0.4746094 z m -0.01758,0.7871094 -0.05469,0.7910156 h 0.203125 l -0.03906,-0.7910156 z m -0.03125,1.3125 -0.0918,1.3164063 h 0.33789 l -0.06445,-1.3164063 z m -0.05273,2.1875 L 24.589844,9 h 0.5625 L 25.042969,6.8046875 Z m -0.08594,3.6464845 -0.251953,3.65625 h 0.9375 l -0.181641,-3.65625 z m -0.265625,6.066406 -0.298828,4.035156 c 0.441563,0.529846 0.765625,0.900391 0.765625,0.900391 0,0 0.28876,-0.329788 0.675781,-0.791016 l -0.222656,-4.144531 z" /></g><g
     inkscape:groupmode="layer"
     id="layer5"
     inkscape:label="v3"><path
       d="m 42.989952,1.3109558 c -4.1214,0 -7.462454,3.3016352 -7.462454,7.3744089 0,5.5308053 7.462454,13.6953293 7.462454,13.6953293 0,0 7.462454,-8.164524 7.462454,-13.6953293 0,-4.0727737 -3.341054,-7.3744089 -7.462454,-7.3744089 z"
       id="path7842-6-9-0"
       sodipodi:nodetypes="sscss"
       style="font-variation-settings:normal;display:inline;vector-effect:none;fill:#373737;fill-opacity:1;stroke-width:1.05976;stroke-linecap:butt;stroke-linejoin:miter;stroke-miterlimit:4;stroke-dasharray:none;stroke-dashoffset:0;stroke-opacity:1;-inkscape-stroke:none;stop-color:#000000"
       inkscape:label="map-pin-stroke" /><path
       d="m 42.989952,1.7716042 c -3.865993,0 -7,3.1340068 -7,7.0000005 0,5.2499993 7,12.9999993 7,12.9999993 0,0 7,-7.75 7,-12.9999993 0,-3.8659937 -3.134007,-7.0000005 -7,-7.0000005 z"
       id="path7842-6-9"
       sodipodi:nodetypes="sscss"
       style="font-variation-settings:normal;display:inline;vector-effect:none;fill:#027be3;fill-opacity:1;stroke-width:1;stroke-linecap:butt;stroke-linejoin:miter;stroke-miterlimit:4;stroke-dasharray:none;stroke-dashoffset:0;stroke-opacity:1;-inkscape-stroke:none;stop-color:#000000"
       inkscape:label="map-pin" /><path
       style="font-variation-settings:normal;display:inline;vector-effect:none;fill:#373737;fill-opacity:1;stroke-width:1;stroke-linecap:butt;stroke-linejoin:miter;stroke-miterlimit:4;stroke-dasharray:none;stroke-dashoffset:0;stroke-opacity:1;-inkscape-stroke:none;stop-color:#000000"
       d="M 42.778923,1.7787733 36.927361,12.649867 c 1.906127,4.515528 6.0625,9.121094 6.0625,9.121094 0,0 4.30435,-4.766342 6.162109,-9.355469 C 47.140798,8.8696757 45.129932,5.324522 43.118764,1.7787764 Z"
       id="path13646" /><path
       style="font-variation-settings:normal;display:none;vector-effect:none;fill:#000000;fill-opacity:1;stroke-width:1;stroke-linecap:butt;stroke-linejoin:miter;stroke-miterlimit:4;stroke-dasharray:none;stroke-dashoffset:0;stroke-opacity:1;-inkscape-stroke:none;stop-color:#000000"
       d="m 42.687123,1.7787733 c -0.0085,3.611e-4 -0.01694,0.00156 -0.02539,0.00195 -2.051606,3.254965 -4.102691,6.5105914 -6.154297,9.7656257 0.05029,0.150422 0.101864,0.301806 0.158203,0.453125 2.008788,-3.3993513 4.018498,-6.7979814 6.027344,-10.1972663 z"
       id="path13644" /><path
       style="font-variation-settings:normal;display:none;vector-effect:none;fill:#000000;fill-opacity:1;stroke-width:1;stroke-linecap:butt;stroke-linejoin:miter;stroke-miterlimit:4;stroke-dasharray:none;stroke-dashoffset:0;stroke-opacity:1;-inkscape-stroke:none;stop-color:#000000"
       d="m 43.228139,1.7768233 -0.0059,0.025391 c 2.0431,3.3645668 4.085806,6.7291174 6.128906,10.0937497 0.05397,-0.148295 0.106252,-0.296002 0.154297,-0.443359 -2.085006,-3.2246703 -4.170853,-6.4492257 -6.25586,-9.6738282 -0.0072,-2.627e-4 -0.01431,-0.00171 -0.02148,-0.00195 z"
       id="path4623-7-3" /><path
       id="path46-6"
       mask="none"
       style="fill:#027be3;fill-opacity:1;fill-rule:nonzero;stroke:none;stroke-width:0.0020547"
       inkscape:label="linije sredina"
       d="m 42.999623,1.9096358 -0.0078,0.1015625 h 0.02734 l -0.0059,-0.1015625 z m -0.0039,0.1699219 -0.01172,0.1699218 h 0.04297 l -0.0078,-0.1699218 z m -0.0078,0.2832031 -0.01953,0.2851562 h 0.07227 l -0.01367,-0.2851562 z m -0.01172,0.4726562 -0.03125,0.4746094 h 0.121094 L 43.042607,2.835417 Z m -0.01758,0.7871094 -0.05469,0.7910156 h 0.203125 l -0.03906,-0.7910156 z m -0.03125,1.3125 -0.0918,1.3164063 h 0.33789 l -0.06445,-1.3164063 z m -0.05273,2.1875 -0.15041,2.1953123 h 0.5625 L 43.177358,7.1225264 Z m -0.08594,3.6464846 -0.251953,3.65625 h 0.9375 l -0.181641,-3.65625 z m -0.265625,6.066406 -0.298828,4.035156 c 0.441563,0.529846 0.765625,0.900391 0.765625,0.900391 0,0 0.28876,-0.329788 0.675781,-0.791016 L 43.443,16.835417 Z" /></g><g
     inkscape:groupmode="layer"
     id="layer2"
     inkscape:label="v4"><path
       d="m 64.032398,1.3591179 -7.582351,18.1927021 -0.0097,0.105699 7.509695,-2.395699 7.556745,2.333619 -0.05675,-0.04362 z"
       id="path486"
       style="fill:#027be3;fill-opacity:1"
       sodipodi:nodetypes="ccccccc" /><path
       d="M 63.959218,4.8804514 59.405,16.168275 l -0.006,0.06523 4.560107,-1.478526 4.588677,1.440213 -0.03446,-0.02692 z"
       id="path486-5"
       style="display:none;fill:#373737;fill-opacity:1;stroke-width:0.612174"
       sodipodi:nodetypes="ccccccc"
       inkscape:export-filename="../Projects/vfm-system/frontend/src/assets/zf-v4-test.svg"
       inkscape:export-xdpi="96"
       inkscape:export-ydpi="96" /><path
       id="path1859"
       style="display:none;fill:#ffffff;fill-opacity:1;fill-rule:nonzero;stroke:none;stroke-width:0.0020547"
       d="m 63.868006,2.9930095 -0.0918,1.3164063 h 0.33789 l -0.06445,-1.3164063 z m -0.05273,2.1875 -0.15041,2.1953123 h 0.5625 L 64.117991,5.1805095 Z m -0.08594,3.6464844 -0.251953,3.6562501 h 0.9375 L 64.233242,8.8269939 Z M 63.463711,14.8934 63.164883,18.928556 c 0.441563,0.529846 0.765625,0.900391 0.765625,0.900391 0,0 0.28876,-0.329788 0.675781,-0.791016 L 64.383633,14.8934 Z"
       clip-path="url(#clipPath1897)"
       transform="matrix(0.6831221,0,0,0.6831221,20.27175,3.4433558)"
       inkscape:export-filename="zf-logo-v4-test.svg"
       inkscape:export-xdpi="96"
       inkscape:export-ydpi="96" /><path
       id="path46-6-2"
       mask="none"
       style="fill:#ffffff;fill-opacity:1;fill-rule:nonzero;stroke:none;stroke-width:0.0020547"
       inkscape:label="linije sredina"
       d="m 64.028237,1.1063385 -0.0078,0.1015625 h 0.02734 l -0.0059,-0.1015625 z m -0.0039,0.1699219 -0.01172,0.1699218 h 0.04297 l -0.0078,-0.1699218 z m -0.0078,0.2832031 -0.01953,0.2851562 h 0.07227 l -0.01367,-0.2851562 z m -0.01172,0.4726562 -0.03125,0.4746094 h 0.121094 l -0.02344,-0.4746094 z m -0.01758,0.7871094 -0.05469,0.791016 h 0.203125 l -0.03906,-0.791016 z m -0.03125,1.3125 -0.0918,1.316406 h 0.33789 l -0.06445,-1.316406 z m -0.05273,2.1875 -0.15041,2.195312 h 0.5625 l -0.109375,-2.195312 z m -0.08594,3.646485 -0.251953,3.6562499 h 0.9375 L 64.321223,9.9657141 Z m -0.265625,6.0664059 -0.298828,4.035156 c 0.441563,0.529846 0.765625,0.900391 0.765625,0.900391 0,0 0.28876,-0.329788 0.675781,-0.791016 L 64.471614,16.03212 Z"
       clip-path="url(#clipPath2302)"
       inkscape:export-filename="../Projects/vfm-system/frontend/src/assets/zf-v4-test.svg"
       inkscape:export-xdpi="96"
       inkscape:export-ydpi="96" /><rect
       style="fill:#ffffff;fill-opacity:1;stroke-width:0.221171;stop-color:#000000"
       id="rect2264"
       width="0.44552353"
       height="17.866367"
       x="46.006218"
       y="6.0166211" /></g></svg>
