<svg xmlns="http://www.w3.org/2000/svg" width="256" height="256"><path fill-opacity=".016" d="M0 128.004v128.004l128.25-.254 128.25-.254.254-127.75L257.008 0H0v128.004m.485.496c0 70.4.119 99.053.265 63.672.146-35.38.146-92.98 0-128C.604 29.153.485 58.1.485 128.5" fill="#1976D2" fill-rule="evenodd"/><path fill-opacity=".091" d="M125.246 4.144C124.178 6.54 98.459 64.01 68.091 131.856 37.724 199.701 13.09 255.423 13.349 255.682c.258.259 6.814-3.161 14.568-7.599 7.753-4.439 16.49-9.347 19.415-10.908 6.046-3.226 70.073-39.158 76.154-42.737l3.985-2.346 4.015 2.319c12.32 7.115 75.825 42.589 76.242 42.589.272 0 4.157 2.186 8.633 4.857 13.398 7.995 24.9 14.215 25.388 13.728.486-.487-112.412-253.488-113.765-254.941-.438-.471-1.67 1.104-2.738 3.5m1.833 31.439c.048 1.165.285 1.402.604.605.289-.722.253-1.585-.079-1.917-.332-.332-.568.258-.525 1.312" fill="#1976D2" fill-rule="evenodd"/><path fill-opacity=".369" d="M125.168 5.25c-1.059 2.338-5.755 12.8-10.435 23.25l-53.751 120C36.1 204.05 15.106 250.996 14.327 252.824l-1.415 3.323 6.794-3.787c15.844-8.83 17.635-9.932 18.47-11.36.483-.825 17.524-46.5 37.87-101.5C109.165 49.973 115.983 31.885 114.68 37c-.21.825-15.36 45.726-33.667 99.78-18.307 54.055-33.049 98.518-32.759 98.807.45.451 70.052-37.755 71.911-39.473.365-.338 1.463-12.651 2.439-27.364l1.774-26.75h7.322l.64 11.75c.352 6.463.937 18.586 1.301 26.942l.661 15.192 35.89 20.058C189.931 226.974 206.486 236 206.98 236c.495 0-.196-3.038-1.534-6.75-5.758-15.976-66.321-195.708-66.041-195.989.17-.17 1.328 2.514 2.574 5.965 7.609 21.084 74.305 200.459 74.992 201.687.755 1.349 24.19 15.259 24.755 14.694.13-.13-24.546-55.557-54.836-123.171C156.601 64.821 130.975 7.588 129.945 5.25 128.914 2.912 127.851 1 127.582 1c-.268 0-1.355 1.912-2.414 4.25m2.084 17.25c.011 2.2.216 2.982.455 1.738.239-1.244.23-3.044-.02-4s-.446.062-.435 2.262m-.147 12c-.073 2.2-.404 5.013-.735 6.25-.444 1.654-.175 2.25 1.013 2.25 1.767 0 2.024-3.969.617-9.5-.738-2.901-.768-2.868-.895 1m-.524 18.75c-.252 1.237-.676 5.737-.942 10l-.485 7.75h2.566c2.545 0 2.56-.048 1.922-6.147-.353-3.38-.642-7.88-.642-10 0-4.164-1.673-5.273-2.419-1.603m-.642 32.5c-.034.412-.606 8.063-1.27 17L123.46 119h8.395l-.416-5.25c-.229-2.888-.691-10.537-1.027-17-.553-10.666-.785-11.75-2.511-11.75-1.045 0-1.929.338-1.962.75" fill="#1976D2" fill-rule="evenodd"/><path fill-opacity=".284" d="M125.477 6.727c-.996 3.175-18.806 55.94-39.578 117.255-20.772 61.316-37.685 111.565-37.583 111.666.254.252 69.981-38.662 71.018-39.634.459-.431 1.688-12.647 2.732-27.148l1.915-26.616c.011-.137 1.791-.25 3.958-.25 3.885 0 3.945.057 4.459 4.25.286 2.338.997 14.345 1.579 26.684.581 12.339 1.288 22.664 1.569 22.945.877.877 70.94 39.953 71.194 39.706.133-.128-14.857-44.749-33.309-99.159C154.978 82.017 137.158 29.4 133.831 19.5c-3.328-9.9-6.162-18.123-6.297-18.273-.135-.15-1.061 2.325-2.057 5.5m1.718 6.773c.02 1.65.244 2.204.498 1.231.254-.973.237-2.323-.037-3-.274-.677-.481.119-.461 1.769m6.836 3c0 .55.436 1.675.969 2.5.533.825.969 1.05.969.5s-.436-1.675-.969-2.5c-.533-.825-.969-1.05-.969-.5M127 20.359c0 1.363-.273 3.189-.607 4.059-.398 1.038-.055 1.582 1 1.582 1.165 0 1.607-.947 1.607-3.441 0-1.893-.45-3.719-1-4.059-.564-.348-1 .462-1 1.859M66.707 136.707c-28.958 64.725-52.552 117.777-52.429 117.892.122.116 5.393-2.662 11.713-6.173l11.491-6.384 41.257-111.19c22.691-61.155 41.113-111.334 40.937-111.509-.175-.175-24.011 52.639-52.969 117.364M136.17 22c.269.825 18.678 50.625 40.909 110.666L217.5 241.833l11.5 6.496c6.325 3.573 11.621 6.377 11.769 6.231.342-.337-103.676-232.827-104.486-233.534-.331-.289-.382.149-.113.974m-9.565 9.588c-.333.866-.605 3.789-.605 6.494 0 3.705.37 4.918 1.5 4.918 1.165 0 1.5-1.327 1.5-5.941 0-5.833-1.202-8.58-2.395-5.471m-.949 26.117c-.353 3.737-.645 8.483-.649 10.545-.006 3.349.264 3.75 2.528 3.75h2.535l-.285-10.238c-.235-8.448-.565-10.292-1.886-10.545-1.294-.247-1.725.999-2.243 6.488m-1.168 38.545c-.391 6.188-.772 13.95-.849 17.25l-.139 6 4.342.312 4.341.312-.715-16.812c-.394-9.247-.912-17.15-1.151-17.562-.239-.412-1.489-.75-2.777-.75-2.276 0-2.363.321-3.052 11.25" fill="#1976D2" fill-rule="evenodd"/></svg>